<svg width="323" height="323" viewBox="0 0 323 323" fill="none" xmlns="http://www.w3.org/2000/svg">
<rect width="323" height="323" fill="#4384C1"/>
<path fill-rule="evenodd" clip-rule="evenodd" d="M247.822 53.3529L248.588 53.5884C251.593 54.5126 253.023 57.0892 253.626 59.7533C254.227 62.4039 254.131 65.5609 253.787 68.5421C253.438 71.5574 252.814 74.5631 252.255 76.9754C252.012 78.0193 251.78 78.9622 251.587 79.7453C251.557 79.8682 251.527 79.9871 251.499 80.1018C251.281 80.9888 251.148 81.5475 251.101 81.8289C250.851 83.3301 251.08 84.769 252.229 86.3001L252.359 86.4742L252.449 86.6707L252.449 86.6718L252.451 86.6771L252.468 86.7115C252.479 86.7354 252.495 86.7694 252.516 86.8124C252.523 86.8279 252.531 86.8446 252.54 86.8624C252.605 86.9971 252.705 87.1957 252.834 87.4393C253.093 87.9292 253.465 88.5867 253.918 89.2657C254.375 89.9509 254.886 90.6169 255.418 91.1483C255.884 91.6145 256.286 91.897 256.602 92.0399C261.537 92.5979 266.894 94.2736 271.126 96.3254C273.28 97.3698 275.218 98.5478 276.684 99.7837C278.059 100.944 279.389 102.462 279.613 104.252L279.653 104.574L279.59 104.892C279.393 105.876 278.68 106.407 278.254 106.648C277.802 106.903 277.297 107.053 276.857 107.151C275.959 107.352 274.81 107.451 273.573 107.499C271.071 107.596 267.761 107.498 264.368 107.374C263.721 107.35 263.07 107.325 262.42 107.3C259.621 107.194 256.823 107.088 254.335 107.062C251.398 107.033 249.14 107.124 247.869 107.383C245.716 108.652 244.787 109.726 243.385 111.348C242.913 111.894 242.387 112.502 241.743 113.201C236.796 121.609 233.629 126.912 227.174 134.77C225.88 136.345 224.806 137.621 223.866 138.737C221.47 141.583 219.946 143.393 217.881 146.477C217.911 146.536 217.966 146.624 218.065 146.747C218.432 147.206 219.169 147.744 220.159 148.07C223.142 148.749 225.558 148.79 228.143 148.81L228.405 148.812C230.944 148.83 233.68 148.85 237.033 149.541C243.744 150.926 246.287 152.1 252.408 154.926L252.995 155.197L253.023 155.211C255.635 156.517 258.121 158.086 260.165 159.669C262.168 161.219 263.902 162.901 264.844 164.471L266.052 166.485L263.871 167.357C262.156 168.043 260.138 168.005 258.345 167.885C257.681 167.841 257.037 167.784 256.398 167.729C255.149 167.62 253.922 167.512 252.61 167.5L252.539 167.499L252.469 167.494C247.542 167.1 243.022 167.021 238.449 166.941C237.292 166.92 236.132 166.9 234.96 166.875C229.19 166.749 223.23 166.498 216.373 165.484C210.962 164.891 207.799 164.998 202.53 165.472C201.198 165.92 199.336 166.935 196.949 168.448C194.827 169.794 192.427 171.443 189.789 173.254C189.368 173.543 188.942 173.836 188.51 174.132C182.272 178.41 174.892 183.378 167.469 186.815C155.759 192.236 145.763 197.789 135.623 203.421C134.143 204.243 132.661 205.067 131.169 205.892C119.466 212.366 107.266 218.908 91.9013 225.345C75.3216 232.29 68.2997 234.885 48.761 241.397L48.6503 241.434L48.536 241.458C42.076 242.802 40.891 242.983 31.8494 243.988L31.5411 244.022L31.2368 243.961C31.0707 243.928 30.9075 243.896 30.7469 243.864C28.9487 243.507 27.4785 243.216 25.9787 242.597C24.3162 241.911 22.6977 240.865 20.4007 239.079L20.0884 238.836L19.8921 238.492C19.0823 237.075 18.8771 234.909 19.0644 232.516C19.2602 230.013 19.9153 226.902 21.1811 223.332C23.7062 216.209 28.6991 207.153 37.5416 197.274C59.2299 164.53 76.9811 153.852 92.1426 145.26C95.9864 143.082 97.3875 140.962 98.5907 138.91C98.698 138.727 98.805 138.541 98.9134 138.353C100.089 136.315 101.411 134.023 104.671 132.244C107.148 130.893 109.333 129.725 111.291 128.679C118.152 125.012 122.232 122.832 126.362 119.452L126.501 119.339L126.657 119.252C128.539 118.206 129.473 117.035 130.04 115.712C130.655 114.278 130.886 112.575 131.141 110.279C131.404 107.912 131.937 105.453 132.79 103.462C133.578 101.624 134.937 99.4989 137.236 99.0389L137.431 99.0001H137.629C139.074 99.0001 140.344 99.2163 141.465 99.7269C142.605 100.246 143.459 101.01 144.149 101.902C144.814 102.763 145.34 103.764 145.827 104.769C146.039 105.207 146.235 105.627 146.435 106.055C146.733 106.693 147.039 107.349 147.417 108.106L147.481 108.233L147.526 108.368C147.94 109.61 148.336 110.77 148.688 111.678C150.773 110.228 152.511 109.01 154.015 107.955C160.686 103.277 162.759 101.824 170.164 97.7479L170.219 97.718L170.275 97.6916C171.714 97.0117 173.043 96.3827 174.279 95.7976C188.531 89.0492 190.434 88.1484 208.026 82.5929C213.46 80.877 218.177 79.1928 223.821 77.1774C226.242 76.3128 228.834 75.3872 231.727 74.372C232.2 73.4697 232.682 72.5233 233.176 71.5537C234.583 68.7919 236.086 65.8422 237.743 63.1903C240.15 59.3377 243.109 55.7093 247.106 53.7112L247.822 53.3529ZM149.323 113.086C149.322 113.085 149.322 113.084 149.321 113.083C149.339 113.106 149.339 113.11 149.323 113.086ZM217.851 146.38C217.855 146.382 217.862 146.399 217.861 146.43C217.847 146.395 217.848 146.379 217.851 146.38ZM248.903 88.5289C247.157 86.1128 246.749 83.6123 247.156 81.1713C247.234 80.7026 247.414 79.9645 247.615 79.1464C247.644 79.029 247.674 78.9083 247.704 78.7843C247.897 78.0007 248.123 77.0863 248.358 76.0716C248.904 73.7183 249.49 70.8802 249.813 68.0831C250.14 65.2517 250.176 62.6275 249.725 60.6374C249.379 59.1083 248.818 58.2095 248.091 57.7301C245.444 59.3171 243.208 61.9926 241.136 65.3098C239.572 67.8117 238.208 70.4902 236.842 73.1733C236.2 74.4342 235.557 75.6961 234.893 76.9412L234.526 77.6299L233.789 77.8878C230.657 78.984 227.859 79.9832 225.244 80.917C219.557 82.9472 214.737 84.6685 209.231 86.4072C191.892 91.8826 190.128 92.7179 176.054 99.3825C174.817 99.9683 173.485 100.599 172.039 101.282C164.876 105.225 162.962 106.568 156.372 111.189C154.471 112.521 152.183 114.126 149.267 116.144C148.88 116.412 148.397 116.561 147.883 116.523C147.41 116.488 147.048 116.307 146.822 116.159C146.408 115.887 146.145 115.526 146.012 115.331C145.714 114.891 145.448 114.319 145.222 113.778C144.764 112.688 144.259 111.212 143.776 109.766C143.413 109.035 143.068 108.298 142.761 107.641C142.566 107.225 142.386 106.841 142.227 106.512C141.76 105.549 141.381 104.862 140.984 104.348C140.611 103.865 140.245 103.567 139.807 103.367C139.391 103.178 138.802 103.029 137.905 103.004C137.63 103.14 137.074 103.621 136.467 105.038C135.82 106.547 135.353 108.588 135.116 110.721C134.871 112.925 134.602 115.222 133.717 117.288C132.803 119.42 131.282 121.219 128.76 122.659C124.345 126.245 119.856 128.642 112.968 132.321C111.044 133.348 108.934 134.475 106.586 135.756C104.338 136.982 103.524 138.383 102.349 140.405C102.25 140.576 102.147 140.752 102.041 140.933C100.62 143.358 98.7708 146.102 94.1146 148.74C79.295 157.138 62.0715 167.444 40.7966 199.604L40.7154 199.726L40.6171 199.836C32.021 209.414 27.2916 218.067 24.9511 224.668C24.2124 226.752 23.7154 228.621 23.4079 230.241C23.9859 230.303 24.6577 230.372 25.3858 230.444C27.5809 230.661 30.2491 230.893 32.3901 230.988C43.6772 227.744 60.5867 219.893 78.5988 210.778C90.8356 204.586 103.482 197.862 115.111 191.679C120.721 188.696 126.095 185.839 131.071 183.229L131.19 183.166L131.317 183.12C133.797 182.219 136.364 181.187 138.937 180.152C139.177 180.056 139.417 179.959 139.658 179.863C142.454 178.74 145.25 177.628 147.852 176.734C150.441 175.844 152.939 175.135 155.132 174.859C157.261 174.592 159.5 174.678 161.238 175.836C162.157 176.449 162.405 177.69 161.793 178.609C161.18 179.528 159.938 179.777 159.019 179.164C158.507 178.823 157.48 178.596 155.631 178.828C153.848 179.052 151.657 179.656 149.152 180.517C146.66 181.373 143.954 182.448 141.148 183.575C140.906 183.672 140.664 183.77 140.42 183.867C137.902 184.88 135.317 185.919 132.811 186.833C127.906 189.407 122.595 192.231 117.041 195.184C105.392 201.377 92.6765 208.137 80.4049 214.347C62.2694 223.525 44.8864 231.614 33.1725 234.925L32.8675 235.011L32.5509 234.999C30.2362 234.909 27.3123 234.654 24.993 234.425C24.2604 234.352 23.584 234.282 23.0009 234.22C23.0108 235.197 23.1283 235.85 23.2476 236.223C25.2146 237.729 26.4118 238.449 27.5039 238.899C28.6272 239.362 29.7151 239.579 31.6579 239.967C31.6771 239.97 31.6964 239.974 31.7158 239.978C40.338 239.019 41.4792 238.84 47.6069 237.566C66.9839 231.106 73.9152 228.543 90.3558 221.655C105.517 215.304 117.567 208.846 129.233 202.392C130.716 201.571 132.194 200.75 133.672 199.929C143.806 194.3 153.936 188.672 165.788 183.185C172.865 179.909 179.985 175.128 186.247 170.833C186.675 170.54 187.098 170.249 187.518 169.961C190.148 168.155 192.618 166.458 194.808 165.07C197.307 163.485 199.633 162.175 201.54 161.589L201.74 161.527L201.948 161.508C207.533 161.001 210.992 160.868 216.847 161.512L216.885 161.516L216.922 161.522C223.549 162.504 229.327 162.751 235.047 162.876C236.184 162.9 237.322 162.92 238.465 162.94C243.03 163.02 247.682 163.101 252.719 163.501C254.16 163.518 255.642 163.647 256.953 163.76C257.548 163.812 258.107 163.86 258.612 163.894C258.759 163.904 258.901 163.912 259.04 163.92C258.64 163.569 258.198 163.204 257.717 162.832C255.893 161.42 253.64 159.994 251.262 158.803C251.085 158.721 250.911 158.641 250.74 158.562C244.694 155.77 242.485 154.75 236.225 153.459C233.263 152.848 230.866 152.83 228.301 152.811L228.113 152.81C225.472 152.79 222.659 152.752 219.179 151.949L219.102 151.931L219.027 151.908C217.387 151.39 215.9 150.443 214.943 149.248C214.013 148.086 213.271 146.181 214.464 144.391C216.706 141.028 218.414 139 220.91 136.035C221.837 134.935 222.872 133.705 224.083 132.231C230.378 124.568 233.414 119.47 238.405 110.986L238.515 110.798L238.664 110.638C239.194 110.068 239.671 109.515 240.137 108.974C241.713 107.145 243.164 105.462 246.136 103.764L246.376 103.627L246.644 103.56C248.433 103.112 251.317 103.032 254.375 103.063C256.925 103.088 259.795 103.198 262.597 103.304C263.241 103.329 263.882 103.353 264.514 103.376C267.933 103.502 271.092 103.592 273.418 103.502C273.915 103.482 274.355 103.455 274.738 103.421C274.561 103.243 274.352 103.05 274.105 102.841C272.977 101.89 271.352 100.88 269.381 99.9247C265.439 98.0132 260.412 96.462 255.919 95.9891L255.703 95.9663L255.496 95.8974C254.331 95.5092 253.353 94.7408 252.589 93.9768C251.808 93.1958 251.133 92.2992 250.589 91.4845C250.042 90.6634 249.602 89.8834 249.299 89.3108C249.146 89.0231 249.027 88.7842 248.944 88.6143C248.929 88.5835 248.915 88.5551 248.903 88.5289ZM176.098 168.652C176.29 169.74 175.564 170.778 174.476 170.97L165.976 172.47C164.888 172.662 163.851 171.935 163.659 170.848C163.467 169.76 164.193 168.722 165.281 168.53L173.781 167.03C174.869 166.839 175.906 167.565 176.098 168.652Z" fill="white"/>
<path d="M279.643 265.064V262.088H283.195V264.056L285.115 265.928H293.947L295.867 264.056V260.36L293.947 258.44H283.627L279.835 254.648V249.032L283.771 245.096H295.003L298.939 249.032V252.008H295.387V250.04L293.467 248.168H285.307L283.387 250.04V253.544L285.307 255.464H295.483L299.419 259.4V265.064L295.483 269H283.579L279.643 265.064Z" fill="white"/>
<path d="M253.368 264.584V245.096H256.92V263.48L259.32 265.832H264.12L270.072 259.88V245.096H273.624V269H270.168V263.912L265.08 269H257.784L253.368 264.584Z" fill="white"/>
<path d="M242.598 234.728H246.15V269H242.598V234.728Z" fill="white"/>
<path d="M215.2 265.064V258.968L219.136 255.08H231.904V250.52L229.504 248.168H221.344L218.944 250.52V252.488H215.392V249.512L219.808 245.096H230.992L235.408 249.512V269H232V264.776L227.584 269H219.136L215.2 265.064ZM226.864 265.928L231.904 261.08V258.152H220.672L218.752 260.024V264.056L220.672 265.928H226.864Z" fill="white"/>
<path d="M190.158 265.064V262.088H193.71V264.056L195.63 265.928H204.462L206.382 264.056V260.36L204.462 258.44H194.142L190.35 254.648V249.032L194.286 245.096H205.518L209.454 249.032V252.008H205.902V250.04L203.982 248.168H195.822L193.902 250.04V253.544L195.822 255.464H205.998L209.934 259.4V265.064L205.998 269H194.094L190.158 265.064Z" fill="white"/>
<path d="M184.142 245.096V275.096L179.726 279.464H168.206L164.51 275.768V272.84H168.062V274.664L169.742 276.296H178.19L180.59 273.944V263.912L175.502 269H168.206L163.79 264.584V245.096H167.342V263.48L169.742 265.832H174.542L180.59 259.784V245.096H184.142Z" fill="white"/>
<path d="M136.654 234.728H140.206V250.088L145.198 245.096H152.638L157.054 249.512V269H153.502V250.616L151.102 248.264H146.158L140.206 254.216V269H136.654V234.728Z" fill="white"/>
<path d="M107.035 235.4H126.235L130.651 239.816V250.616L126.187 255.08H110.683V269H107.035V235.4ZM124.651 251.912L127.051 249.56V240.92L124.651 238.568H110.683V251.912H124.651Z" fill="white"/>
</svg>
